<svg width="25" height="25" viewBox="0 0 25 25" fill="none" xmlns="http://www.w3.org/2000/svg">
<path d="M12.5 16.25C13.4946 16.25 14.4484 15.8549 15.1517 15.1517C15.8549 14.4484 16.25 13.4946 16.25 12.5V6.25C16.25 5.25544 15.8549 4.30161 15.1517 3.59835C14.4484 2.89509 13.4946 2.5 12.5 2.5C11.5054 2.5 10.5516 2.89509 9.84835 3.59835C9.14509 4.30161 8.75 5.25544 8.75 6.25V12.5C8.75 13.4946 9.14509 14.4484 9.84835 15.1517C10.5516 15.8549 11.5054 16.25 12.5 16.25ZM12.5 15C11.837 15 11.2011 14.7366 10.7322 14.2678C10.2634 13.7989 10 13.163 10 12.5V6.25C10 5.58696 10.2634 4.95107 10.7322 4.48223C11.2011 4.01339 11.837 3.75 12.5 3.75C13.163 3.75 13.7989 4.01339 14.2678 4.48223C14.7366 4.95107 15 5.58696 15 6.25V12.5C15 13.163 14.7366 13.7989 14.2678 14.2678C13.7989 14.7366 13.163 15 12.5 15ZM6.25 11.875C6.41576 11.875 6.57473 11.9408 6.69194 12.0581C6.80915 12.1753 6.875 12.3342 6.875 12.5C6.875 13.2387 7.0205 13.9701 7.30318 14.6526C7.58586 15.3351 8.00019 15.9551 8.52252 16.4775C9.04485 16.9998 9.66495 17.4141 10.3474 17.6968C11.0299 17.9795 11.7613 18.125 12.5 18.125C13.2387 18.125 13.9701 17.9795 14.6526 17.6968C15.3351 17.4141 15.9551 16.9998 16.4775 16.4775C16.9998 15.9551 17.4141 15.3351 17.6968 14.6526C17.9795 13.9701 18.125 13.2387 18.125 12.5C18.125 12.3342 18.1908 12.1753 18.3081 12.0581C18.4253 11.9408 18.5842 11.875 18.75 11.875C18.9158 11.875 19.0747 11.9408 19.1919 12.0581C19.3092 12.1753 19.375 12.3342 19.375 12.5C19.3752 14.2153 18.7342 15.8688 17.5779 17.1357C16.4215 18.4027 14.8332 19.1916 13.125 19.3475V21.875C13.125 22.0408 13.0592 22.1997 12.9419 22.3169C12.8247 22.4342 12.6658 22.5 12.5 22.5C12.3342 22.5 12.1753 22.4342 12.0581 22.3169C11.9408 22.1997 11.875 22.0408 11.875 21.875V19.3475C10.1668 19.1916 8.57854 18.4027 7.42215 17.1357C6.26576 15.8688 5.62476 14.2153 5.625 12.5C5.625 12.3342 5.69085 12.1753 5.80806 12.0581C5.92527 11.9408 6.08424 11.875 6.25 11.875Z" fill="#6C6C6C"/>
</svg>
