<svg width="24" height="24" viewBox="0 0 24 24" fill="none" xmlns="http://www.w3.org/2000/svg">
<g clip-path="url(#clip0_114_87)">
<path d="M23.9873 12.2245C23.9873 11.2413 23.9057 10.5237 23.729 9.77963H12.239V14.2176H18.9833C18.8474 15.3205 18.1132 16.9815 16.4814 18.0976L16.4585 18.2461L20.0915 20.9963L20.3431 21.0209C22.6547 18.9347 23.9873 15.8653 23.9873 12.2245Z" fill="#4285F4"/>
<path d="M12.239 23.9176C15.5432 23.9176 18.3171 22.8545 20.3432 21.0209L16.4815 18.0976C15.4481 18.8018 14.0611 19.2934 12.239 19.2934C9.00285 19.2934 6.25616 17.2074 5.27705 14.324L5.13353 14.3359L1.35598 17.1927L1.30658 17.3269C3.319 21.2334 7.45266 23.9176 12.239 23.9176Z" fill="#34A853"/>
<path d="M5.27702 14.324C5.01867 13.5799 4.86916 12.7826 4.86916 11.9588C4.86916 11.1349 5.01867 10.3377 5.26343 9.5936L5.25658 9.43513L1.4317 6.53241L1.30655 6.59058C0.47714 8.21168 0.0012207 10.0321 0.0012207 11.9588C0.0012207 13.8855 0.47714 15.7058 1.30655 17.3269L5.27702 14.324Z" fill="#FBBC05"/>
<path d="M12.239 4.62406C14.537 4.62406 16.0871 5.59405 16.971 6.40464L20.4247 3.10931C18.3036 1.18263 15.5432 3.05176e-05 12.239 3.05176e-05C7.45266 3.05176e-05 3.319 2.68409 1.30658 6.59059L5.26345 9.59362C6.25616 6.71023 9.00285 4.62406 12.239 4.62406Z" fill="#EB4335"/>
</g>
<defs>
<clipPath id="clip0_114_87">
<rect width="24" height="24" fill="white"/>
</clipPath>
</defs>
</svg>
